<?xml version="1.0" encoding="utf-8"?>
<!-- Generator: Adobe Illustrator 24.3.0, SVG Export Plug-In . SVG Version: 6.00 Build 0)  -->
<svg version="1.1" id="Capa_1" xmlns="http://www.w3.org/2000/svg" xmlns:xlink="http://www.w3.org/1999/xlink" x="0px" y="0px"
	 viewBox="0 0 100 102.5" style="enable-background:new 0 0 100 102.5;" xml:space="preserve">
<style type="text/css">
	.st0{fill:#F4F6FA;}
	.st1{fill:#FFFFFF;}
	.st2{fill:#2BBFE8;}
	.st3{fill:#7E68C6;}
	.st4{fill:#CB479C;}
	.st5{fill:#FA9F3C;}
	.st6{fill:#F7BB40;}
	.st7{fill:#2A3942;}
	.st8{fill:none;stroke:#000000;stroke-width:2;stroke-miterlimit:10;}
</style>
<g id="_x36_">
	<g>
		<g>
			<rect x="-1536" y="-241" class="st0" width="964" height="586.5"/>
			<rect x="-1358.7" y="-62.2" class="st1" width="100" height="100"/>
			<rect x="-1231.3" y="-62.2" class="st1" width="100" height="100"/>
			<rect x="-1486" y="-62.2" class="st1" width="100" height="100"/>
			<rect x="-976.7" y="66.6" class="st1" width="100" height="100"/>
			<rect x="-1104" y="66.6" class="st1" width="100" height="100"/>
			<rect x="-1231.3" y="66.6" class="st1" width="100" height="100"/>
			<rect x="-1358.7" y="66.6" class="st1" width="100" height="100"/>
			<rect x="-1486" y="66.6" class="st1" width="100" height="100"/>
			<rect x="-1104" y="-62.2" class="st1" width="100" height="100"/>
			<rect x="-976.7" y="-62.2" class="st1" width="100" height="100"/>
			<rect x="-849.3" y="-62.2" class="st1" width="100" height="100"/>
			<rect x="-976.7" y="195.5" class="st1" width="100" height="100"/>
			<rect x="-976.7" y="66.6" class="st1" width="100" height="100"/>
			<rect x="-976.7" y="195.5" class="st1" width="100" height="100"/>
			<rect x="-849.3" y="66.6" class="st1" width="100" height="100"/>
			<rect x="-849.3" y="195.5" class="st1" width="100" height="100"/>
			<rect x="-722" y="-62.2" class="st1" width="100" height="100"/>
			<rect x="-722" y="66.6" class="st1" width="100" height="100"/>
			<rect x="-1104" y="-191" class="st1" width="100" height="100"/>
			<rect x="-976.7" y="-191" class="st1" width="100" height="100"/>
			<rect x="-849.3" y="-191" class="st1" width="100" height="100"/>
			<rect x="-722" y="-191" class="st1" width="100" height="100"/>
			<rect x="-722" y="195.5" class="st1" width="100" height="100"/>
			<rect x="-1104" y="195.5" class="st1" width="100" height="100"/>
			<rect x="-1231.3" y="195.5" class="st1" width="100" height="100"/>
			<rect x="-1358.7" y="195.5" class="st1" width="100" height="100"/>
			<rect x="-1486" y="195.5" class="st1" width="100" height="100"/>
			<g>
				<g>
					<rect x="-1486" y="-158" class="st2" width="28.3" height="3.5"/>
					<rect x="-1449.7" y="-158" class="st3" width="28.3" height="3.5"/>
					<rect x="-1413.4" y="-158" class="st4" width="28.3" height="3.5"/>
					<rect x="-1377.1" y="-158" class="st5" width="28.3" height="3.5"/>
					<rect x="-1340.8" y="-158" class="st6" width="28.3" height="3.5"/>
				</g>
				<g>
					<g>
						<path class="st7" d="M-1482.9-178.6v13h-1.7v-13H-1482.9z"/>
						<path class="st7" d="M-1466-166c-0.6,0.3-1.8,0.6-3.4,0.6c-3.7,0-6.4-2.3-6.4-6.6c0-4.1,2.8-6.8,6.8-6.8
							c1.6,0,2.6,0.4,3.1,0.6l-0.4,1.4c-0.6-0.3-1.5-0.5-2.6-0.5c-3.1,0-5.1,1.9-5.1,5.4c0,3.2,1.8,5.2,5,5.2c1,0,2.1-0.2,2.7-0.5
							L-1466-166z"/>
						<path class="st7" d="M-1448.4-172.2c0,4.5-2.7,6.8-6,6.8c-3.4,0-5.8-2.7-5.8-6.6c0-4.1,2.6-6.8,6-6.8
							C-1450.7-178.8-1448.4-176.1-1448.4-172.2z M-1458.5-172c0,2.8,1.5,5.3,4.1,5.3c2.7,0,4.2-2.4,4.2-5.4c0-2.6-1.3-5.3-4.1-5.3
							S-1458.5-174.9-1458.5-172z"/>
						<path class="st7" d="M-1441.4-165.6v-13h1.8l4.2,6.6c1,1.5,1.7,2.9,2.3,4.2l0,0c-0.2-1.7-0.2-3.3-0.2-5.3v-5.4h1.6v13h-1.7
							l-4.1-6.6c-0.9-1.4-1.8-2.9-2.4-4.3h-0.1c0.1,1.6,0.1,3.2,0.1,5.4v5.6L-1441.4-165.6L-1441.4-165.6z"/>
						<path class="st7" d="M-1412.8-172.2c0,4.5-2.7,6.8-6,6.8c-3.4,0-5.8-2.7-5.8-6.6c0-4.1,2.6-6.8,6-6.8
							C-1415.1-178.8-1412.8-176.1-1412.8-172.2z M-1422.9-172c0,2.8,1.5,5.3,4.1,5.3c2.7,0,4.2-2.4,4.2-5.4c0-2.6-1.3-5.3-4.1-5.3
							S-1422.9-174.9-1422.9-172z"/>
						<path class="st7" d="M-1395.9-166.2c-0.8,0.3-2.2,0.7-4,0.7c-2,0-3.6-0.5-4.9-1.7c-1.1-1.1-1.8-2.8-1.8-4.8
							c0-3.9,2.7-6.7,7-6.7c1.5,0,2.7,0.3,3.2,0.6l-0.4,1.4c-0.7-0.3-1.6-0.6-2.9-0.6c-3.2,0-5.2,2-5.2,5.2c0,3.3,2,5.2,5,5.2
							c1.1,0,1.8-0.1,2.2-0.4v-3.9h-2.6v-1.4h4.3L-1395.9-166.2L-1395.9-166.2z"/>
						<path class="st7" d="M-1388.6-178.4c0.8-0.2,2.1-0.3,3.2-0.3c1.8,0,2.9,0.3,3.8,1.1c0.7,0.6,1,1.5,1,2.5
							c0,1.7-1.1,2.9-2.4,3.3v0.1c1,0.4,1.6,1.3,1.9,2.6c0.4,1.8,0.7,3.1,1,3.6h-1.7c-0.2-0.4-0.5-1.5-0.9-3.1
							c-0.4-1.8-1.1-2.5-2.6-2.5h-1.6v5.6h-1.7L-1388.6-178.4L-1388.6-178.4z M-1386.9-172.5h1.7c1.8,0,2.9-1,2.9-2.5
							c0-1.7-1.2-2.4-3-2.4c-0.8,0-1.4,0.1-1.7,0.1v4.8H-1386.9z"/>
						<path class="st7" d="M-1371.2-169.7l-1.3,4.1h-1.7l4.4-13h2l4.4,13h-1.8l-1.4-4.1H-1371.2z M-1366.9-171l-1.3-3.7
							c-0.3-0.9-0.5-1.6-0.7-2.4l0,0c-0.2,0.8-0.4,1.6-0.7,2.4l-1.3,3.8h4V-171z"/>
						<path class="st7" d="M-1356.7-178.4c0.8-0.1,1.9-0.2,3.2-0.2c1.7,0,2.9,0.4,3.6,1.1c0.7,0.6,1.1,1.6,1.1,2.7
							c0,1.2-0.3,2.1-1,2.8c-0.9,0.9-2.3,1.4-4,1.4c-0.5,0-1,0-1.3-0.1v5.2h-1.7v-12.9H-1356.7z M-1355-172.2
							c0.4,0.1,0.8,0.1,1.4,0.1c2,0,3.3-1,3.3-2.8c0-1.7-1.2-2.5-3.1-2.5c-0.7,0-1.3,0.1-1.6,0.1L-1355-172.2L-1355-172.2z"/>
						<path class="st7" d="M-1339.9-178.6v5.4h6.3v-5.4h1.7v13h-1.7v-6.1h-6.3v6.1h-1.7v-13H-1339.9z"/>
						<path class="st7" d="M-1321.4-165.6v-5.5l-4.1-7.5h1.9l1.8,3.6c0.5,1,0.9,1.8,1.3,2.7l0,0c0.4-0.9,0.8-1.7,1.3-2.7l1.9-3.6
							h1.9l-4.4,7.5v5.5H-1321.4L-1321.4-165.6z"/>
					</g>
				</g>
			</g>
		</g>
		<g>
			<g>
				<path class="st7" d="M-1468.6-115.1h-2.8v-7.7h-7.9v7.7h-2.8v-17.1h2.8v7h7.9v-7h2.8V-115.1z"/>
				<path class="st7" d="M-1459.7-114.9c-2,0-3.6-0.6-4.7-1.8c-1.1-1.2-1.7-2.8-1.7-4.8c0-2.1,0.5-3.8,1.6-5s2.5-1.8,4.3-1.8
					c1.7,0,3.1,0.5,4.1,1.6s1.5,2.5,1.5,4.3v1.5h-8.6c0,1.3,0.4,2.2,1,2.9c0.6,0.7,1.5,1,2.7,1c0.8,0,1.5-0.1,2.1-0.2
					c0.7-0.1,1.4-0.4,2.1-0.7v2.2c-0.7,0.3-1.3,0.6-2,0.7C-1458-114.9-1458.8-114.9-1459.7-114.9z M-1460.2-126.2
					c-0.9,0-1.6,0.3-2.1,0.8s-0.8,1.4-0.9,2.4h5.9c0-1.1-0.3-1.9-0.8-2.4C-1458.6-125.9-1459.3-126.2-1460.2-126.2z"/>
				<path class="st7" d="M-1444.4-115.1l-0.6-1.8h-0.1c-0.6,0.8-1.2,1.3-1.9,1.6c-0.6,0.3-1.4,0.4-2.4,0.4c-1.3,0-2.3-0.3-3-1
					s-1.1-1.7-1.1-2.9c0-1.3,0.5-2.3,1.5-3s2.5-1.1,4.5-1.1l2.2-0.1v-0.7c0-0.8-0.2-1.4-0.6-1.9s-1-0.6-1.8-0.6
					c-0.7,0-1.3,0.1-1.9,0.3c-0.6,0.2-1.2,0.4-1.8,0.7l-0.9-2c0.7-0.4,1.5-0.7,2.3-0.8c0.8-0.2,1.6-0.3,2.4-0.3
					c1.7,0,2.9,0.4,3.7,1.1s1.3,1.8,1.3,3.4v8.7C-1442.4-115.1-1444.4-115.1-1444.4-115.1z M-1448.5-117c1,0,1.8-0.3,2.4-0.8
					s0.9-1.3,0.9-2.3v-1.1l-1.7,0.1c-1.3,0.1-2.2,0.3-2.8,0.7s-0.9,1-0.9,1.8c0,0.6,0.2,1,0.5,1.3
					C-1449.7-117.1-1449.2-117-1448.5-117z"/>
				<path class="st7" d="M-1436.8-115.1h-2.8v-18.2h2.8V-115.1z"/>
				<path class="st7" d="M-1429-117.1c0.7,0,1.3-0.1,2-0.3v2.1c-0.3,0.1-0.7,0.2-1.2,0.3c-0.5,0.1-1,0.1-1.5,0.1
					c-2.6,0-3.9-1.4-3.9-4.1v-7h-1.8v-1.2l1.9-1l0.9-2.7h1.7v2.9h3.7v2.1h-3.7v6.9c0,0.7,0.2,1.2,0.5,1.5
					C-1430-117.2-1429.6-117.1-1429-117.1z"/>
				<path class="st7" d="M-1414-115.1h-2.8v-8c0-1-0.2-1.7-0.6-2.2s-1-0.7-1.9-0.7c-1.2,0-2,0.3-2.6,1s-0.8,1.8-0.8,3.5v6.4h-2.8
					v-18.2h2.8v4.6c0,0.7-0.1,1.5-0.1,2.4h0.2c0.4-0.6,0.9-1.1,1.6-1.4s1.4-0.5,2.3-0.5c3.1,0,4.7,1.6,4.7,4.7L-1414-115.1
					L-1414-115.1z"/>
				<path class="st7" d="M-1398.3-130c-1.6,0-2.9,0.6-3.8,1.7c-0.9,1.1-1.4,2.7-1.4,4.7c0,2.1,0.4,3.7,1.3,4.8
					c0.9,1.1,2.2,1.6,3.8,1.6c0.7,0,1.4-0.1,2.1-0.2s1.4-0.3,2.1-0.6v2.4c-1.3,0.5-2.9,0.8-4.6,0.8c-2.5,0-4.4-0.8-5.8-2.3
					s-2-3.7-2-6.5c0-1.8,0.3-3.3,1-4.7c0.7-1.4,1.6-2.4,2.8-3.1c1.2-0.7,2.7-1.1,4.3-1.1c1.8,0,3.4,0.4,4.8,1.1l-1,2.3
					c-0.6-0.3-1.2-0.5-1.8-0.7C-1396.9-129.9-1397.6-130-1398.3-130z"/>
				<path class="st7" d="M-1383.5-115.1l-0.6-1.8h-0.1c-0.6,0.8-1.2,1.3-1.9,1.6c-0.6,0.3-1.4,0.4-2.4,0.4c-1.3,0-2.3-0.3-3-1
					s-1.1-1.7-1.1-2.9c0-1.3,0.5-2.3,1.5-3s2.5-1.1,4.5-1.1l2.2-0.1v-0.7c0-0.8-0.2-1.4-0.6-1.9s-1-0.6-1.8-0.6
					c-0.7,0-1.3,0.1-1.9,0.3c-0.6,0.2-1.2,0.4-1.8,0.7l-0.9-2c0.7-0.4,1.5-0.7,2.3-0.8c0.8-0.2,1.6-0.3,2.4-0.3
					c1.7,0,2.9,0.4,3.7,1.1s1.3,1.8,1.3,3.4v8.7C-1381.5-115.1-1383.5-115.1-1383.5-115.1z M-1387.6-117c1,0,1.8-0.3,2.4-0.8
					s0.9-1.3,0.9-2.3v-1.1l-1.7,0.1c-1.3,0.1-2.2,0.3-2.8,0.7s-0.9,1-0.9,1.8c0,0.6,0.2,1,0.5,1.3
					C-1388.8-117.1-1388.3-117-1387.6-117z"/>
				<path class="st7" d="M-1372.1-128.3c0.6,0,1,0,1.4,0.1l-0.3,2.6c-0.4-0.1-0.8-0.1-1.2-0.1c-1.1,0-2,0.4-2.7,1.1s-1,1.7-1,2.8
					v6.8h-2.8v-13h2.2l0.4,2.3h0.1c0.4-0.8,1-1.4,1.7-1.8C-1373.6-128-1372.9-128.3-1372.1-128.3z"/>
				<path class="st7" d="M-1363.6-114.9c-2,0-3.6-0.6-4.7-1.8c-1.1-1.2-1.7-2.8-1.7-4.8c0-2.1,0.5-3.8,1.6-5s2.5-1.8,4.3-1.8
					c1.7,0,3.1,0.5,4.1,1.6s1.5,2.5,1.5,4.3v1.5h-8.6c0,1.3,0.4,2.2,1,2.9c0.6,0.7,1.5,1,2.7,1c0.8,0,1.5-0.1,2.1-0.2
					c0.7-0.1,1.4-0.4,2.1-0.7v2.2c-0.7,0.3-1.3,0.6-2,0.7C-1362-114.9-1362.8-114.9-1363.6-114.9z M-1364.1-126.2
					c-0.9,0-1.6,0.3-2.1,0.8s-0.8,1.4-0.9,2.4h5.9c0-1.1-0.3-1.9-0.8-2.4C-1362.6-125.9-1363.3-126.2-1364.1-126.2z"/>
				<path class="st7" d="M-1352-119.6c0-1,0.2-1.9,0.8-2.7c0.5-0.8,1.4-1.5,2.7-2.3c-0.7-0.9-1.2-1.6-1.5-2.2s-0.4-1.2-0.4-1.8
					c0-1.2,0.4-2.1,1.3-2.8s2-1,3.4-1s2.5,0.3,3.2,1c0.8,0.7,1.2,1.6,1.2,2.7c0,0.9-0.3,1.7-0.8,2.4c-0.5,0.7-1.4,1.4-2.6,2.2
					l4.1,3.9c0.6-0.8,1.2-2.1,1.6-3.7h2.8c-0.6,2.2-1.4,4-2.6,5.4l3.5,3.4h-3.6l-1.7-1.7c-0.8,0.6-1.6,1.1-2.6,1.4
					c-0.9,0.3-1.9,0.5-3,0.5c-1.8,0-3.2-0.4-4.2-1.3C-1351.5-117-1352-118.1-1352-119.6z M-1346.1-117.2c1.4,0,2.7-0.4,3.7-1.2
					l-4.5-4.4c-0.8,0.5-1.4,1-1.7,1.5c-0.3,0.5-0.5,1-0.5,1.6c0,0.8,0.3,1.4,0.8,1.9C-1347.8-117.5-1347-117.2-1346.1-117.2z
					 M-1347.9-128.5c0,0.5,0.1,1,0.4,1.4s0.6,0.9,1.1,1.4c0.9-0.5,1.5-1,1.8-1.4s0.5-0.9,0.5-1.5c0-0.5-0.2-0.9-0.5-1.2
					s-0.8-0.5-1.3-0.5c-0.6,0-1.1,0.2-1.5,0.5C-1347.7-129.5-1347.9-129-1347.9-128.5z"/>
				<path class="st7" d="M-1321.4-115.1l-5-14.3h-0.1c0.1,2.1,0.2,4.1,0.2,6v8.3h-2.5v-17.1h3.9l4.8,13.6h0.1l4.9-13.6h4v17.1h-2.7
					v-8.5c0-0.8,0-2,0.1-3.3c0-1.4,0.1-2.2,0.1-2.5h-0.1l-5.1,14.3L-1321.4-115.1L-1321.4-115.1z"/>
				<path class="st7" d="M-1302.3-114.9c-2,0-3.6-0.6-4.7-1.8c-1.1-1.2-1.7-2.8-1.7-4.8c0-2.1,0.5-3.8,1.6-5s2.5-1.8,4.3-1.8
					c1.7,0,3.1,0.5,4.1,1.6s1.5,2.5,1.5,4.3v1.5h-8.6c0,1.3,0.4,2.2,1,2.9c0.6,0.7,1.5,1,2.7,1c0.8,0,1.5-0.1,2.1-0.2
					c0.7-0.1,1.4-0.4,2.1-0.7v2.2c-0.7,0.3-1.3,0.6-2,0.7C-1300.7-114.9-1301.4-114.9-1302.3-114.9z M-1302.8-126.2
					c-0.9,0-1.6,0.3-2.1,0.8s-0.8,1.4-0.9,2.4h5.9c0-1.1-0.3-1.9-0.8-2.4C-1301.2-125.9-1301.9-126.2-1302.8-126.2z"/>
				<path class="st7" d="M-1290.8-114.9c-1.6,0-2.9-0.6-3.8-1.8c-0.9-1.2-1.4-2.8-1.4-4.9s0.5-3.8,1.4-5s2.2-1.8,3.8-1.8
					c1.7,0,3,0.6,3.9,1.9h0.1c-0.1-0.9-0.2-1.7-0.2-2.2v-4.7h2.8v18.2h-2.2l-0.5-1.7h-0.1C-1287.8-115.5-1289.1-114.9-1290.8-114.9z
					 M-1290-117.1c1.1,0,2-0.3,2.5-0.9s0.8-1.7,0.8-3.1v-0.4c0-1.6-0.3-2.8-0.8-3.5s-1.4-1-2.5-1c-1,0-1.7,0.4-2.2,1.2
					c-0.5,0.8-0.8,1.9-0.8,3.3s0.2,2.5,0.8,3.3C-1291.8-117.5-1291-117.1-1290-117.1z"/>
				<path class="st7" d="M-1281.3-131.4c0-0.5,0.1-0.9,0.4-1.1s0.7-0.4,1.2-0.4s0.9,0.1,1.1,0.4c0.3,0.3,0.4,0.6,0.4,1.1
					s-0.1,0.8-0.4,1.1s-0.7,0.4-1.1,0.4c-0.5,0-0.9-0.1-1.2-0.4C-1281.2-130.6-1281.3-131-1281.3-131.4z M-1278.4-115.1h-2.8V-128
					h2.8V-115.1z"/>
				<path class="st7" d="M-1270.2-114.9c-2,0-3.4-0.6-4.5-1.7c-1-1.1-1.5-2.8-1.5-4.9c0-2.2,0.5-3.8,1.6-5s2.6-1.8,4.6-1.8
					c1.4,0,2.6,0.2,3.7,0.8l-0.8,2.2c-1.2-0.4-2.1-0.7-2.9-0.7c-2.2,0-3.4,1.5-3.4,4.5c0,1.4,0.3,2.5,0.8,3.3
					c0.6,0.7,1.4,1.1,2.4,1.1c1.2,0,2.4-0.3,3.5-0.9v2.4c-0.5,0.3-1,0.5-1.6,0.6C-1268.7-114.9-1269.4-114.9-1270.2-114.9z"/>
				<path class="st7" d="M-1256.4-115.1l-0.6-1.8h-0.1c-0.6,0.8-1.2,1.3-1.9,1.6c-0.6,0.3-1.4,0.4-2.4,0.4c-1.3,0-2.3-0.3-3-1
					s-1.1-1.7-1.1-2.9c0-1.3,0.5-2.3,1.5-3s2.5-1.1,4.5-1.1l2.2-0.1v-0.7c0-0.8-0.2-1.4-0.6-1.9s-1-0.6-1.8-0.6
					c-0.7,0-1.3,0.1-1.9,0.3c-0.6,0.2-1.2,0.4-1.8,0.7l-0.9-2c0.7-0.4,1.5-0.7,2.3-0.8c0.8-0.2,1.6-0.3,2.4-0.3
					c1.7,0,2.9,0.4,3.7,1.1s1.3,1.8,1.3,3.4v8.7C-1254.4-115.1-1256.4-115.1-1256.4-115.1z M-1260.5-117c1,0,1.8-0.3,2.4-0.8
					c0.6-0.6,0.9-1.3,0.9-2.3v-1.1l-1.7,0.1c-1.3,0.1-2.2,0.3-2.8,0.7s-0.9,1-0.9,1.8c0,0.6,0.2,1,0.5,1.3S-1261.2-117-1260.5-117z"
					/>
				<path class="st7" d="M-1248.8-115.1h-2.8v-18.2h2.8V-115.1z"/>
			</g>
		</g>
	</g>
</g>
<g id="_x34_">
	<g>
		<g>
			<rect x="-849" y="-191.2" class="st1" width="100.4" height="100.4"/>
			<g>
				<g id="_x31_047_x2C__Care_x2C__Health_x2C__Medical_x2C__Result">
					<g>
						<path d="M-783.2-164.8h-3v-0.1c0-2-1.6-3.7-3.7-3.7h-3.8c-0.3-2.1-2.1-3.8-4.3-3.8s-4,1.6-4.3,3.8h-3.9c-2,0-3.7,1.6-3.7,3.7
							v0.1h-3c-2.5,0-4.5,2-4.5,4.5v45c0,2.5,2,4.5,4.5,4.5h29.9c2.5,0,4.5-2,4.5-4.5v-45C-778.7-162.8-780.7-164.8-783.2-164.8z
							 M-807.5-164.9c0-0.6,0.5-1.2,1.2-1.2h5.1c0.7,0,1.3-0.6,1.3-1.3v-0.6c0-1,0.8-1.9,1.9-1.9s1.9,0.8,1.9,1.9v0.6
							c0,0.7,0.6,1.3,1.3,1.3h5.1c0.6,0,1.2,0.5,1.2,1.2v2.7c0,0.6-0.5,1.2-1.2,1.2h-16.8c-0.6,0-1.2-0.5-1.2-1.2L-807.5-164.9
							L-807.5-164.9z M-781.2-115.4c0,1.1-0.9,2-2,2H-813c-1.1,0-2-0.9-2-2v-44.9c0-1.1,0.9-2,2-2h3v0.1c0,2,1.6,3.7,3.7,3.7h16.5
							c2,0,3.7-1.6,3.7-3.7v-0.1h3c1.1,0,2,0.9,2,2L-781.2-115.4L-781.2-115.4z"/>
						<path d="M-784.9-147.2c-0.7,0-1.3,0.6-1.3,1.3v21.4h-5c-0.7,0-1.3,0.6-1.3,1.3v5H-810v-36.5c0-0.7-0.6-1.3-1.3-1.3
							s-1.3,0.6-1.3,1.3v37.7c0,0.7,0.6,1.3,1.3,1.3c21.4,0,20.2,0,20.3,0c0.2,0,0.5-0.2,0.6-0.3c6.8-6.8,6.3-6.3,6.4-6.4
							s0.2-0.2,0.2-0.4c0.1-0.3,0,1,0.1-23C-783.7-146.7-784.3-147.2-784.9-147.2z M-788-122.1l-2,2v-2H-788z"/>
						<path d="M-823.8-133.5c-2.1,0-3.8,1.7-3.8,3.8c0,2.1,1.7,3.7,3.8,3.7s3.8-1.7,3.8-3.8C-820-131.9-821.7-133.5-823.8-133.5z
							 M-823.8-128.4c-0.7,0-1.3-0.6-1.3-1.3s0.6-1.2,1.3-1.2s1.3,0.6,1.3,1.3S-823.1-128.4-823.8-128.4z"/>
						<path d="M-774.2-122.1c-1.7,0-3.1,1.4-3.1,3.1s1.4,3.1,3.1,3.1c1.7,0,3.1-1.4,3.1-3.1C-771.1-120.7-772.5-122.1-774.2-122.1z
							 M-774.2-118.4c-0.3,0-0.6-0.3-0.6-0.6c0-0.3,0.3-0.6,0.6-0.6s0.6,0.3,0.6,0.6C-773.6-118.7-773.9-118.4-774.2-118.4z"/>
						<path d="M-773-147.2c2.4,0,4.4-2,4.4-4.4s-2-4.4-4.4-4.4s-4.4,2-4.4,4.4C-777.3-149.2-775.4-147.2-773-147.2z M-773-153.6
							c1,0,1.9,0.8,1.9,1.9s-0.8,1.9-1.9,1.9c-1.1,0-1.9-0.8-1.9-1.9S-774-153.6-773-153.6z"/>
						<path d="M-825-152.4c0.7,0,1.3,0.6,1.3,1.3s-0.6,1.3-1.3,1.3s-1.3-0.6-1.3-1.3C-826.3-151.8-825.8-152.4-825-152.4z"/>
						<path d="M-821.3-163.6c0.7,0,1.3,0.6,1.3,1.3s-0.6,1.3-1.3,1.3s-1.3-0.6-1.3-1.3S-822-163.6-821.3-163.6z"/>
						<path d="M-771.1-141c0.7,0,1.3,0.6,1.3,1.3s-0.6,1.3-1.3,1.3s-1.3-0.6-1.3-1.3S-771.8-141-771.1-141z"/>
						<path d="M-776.1-132.3c0.7,0,1.3,0.6,1.3,1.3s-0.6,1.3-1.3,1.3s-1.3-0.6-1.3-1.3S-776.9-132.3-776.1-132.3z"/>
						<path d="M-822.5-143.5c0.7,0,1.3,0.6,1.3,1.3s-0.6,1.3-1.3,1.3s-1.3-0.6-1.3-1.3S-823.3-143.5-822.5-143.5z"/>
						<path d="M-821.3-120.9c0.7,0,1.3,0.6,1.3,1.3s-0.6,1.3-1.3,1.3s-1.3-0.6-1.3-1.3S-822-120.9-821.3-120.9z"/>
						<path d="M-774.8-164.9c0.7,0,1.3,0.6,1.3,1.3s-0.6,1.3-1.3,1.3s-1.3-0.6-1.3-1.3C-776.1-164.3-775.6-164.9-774.8-164.9z"/>
						<path d="M-784.9-151c0.7,0,1.3,0.6,1.3,1.3s-0.6,1.3-1.3,1.3s-1.3-0.6-1.3-1.3C-786.2-150.5-785.6-151-784.9-151z"/>
						<path d="M-794.9-127.2c0.7,0,1.3,0.6,1.3,1.3c0,0.7-0.6,1.3-1.3,1.3s-1.3-0.6-1.3-1.3C-796.2-126.7-795.6-127.2-794.9-127.2z"
							/>
						<path d="M-807.5-143.5h5c0.5,0,0.9-0.3,1.1-0.7l0.9-1.9l1.7,7.8c0.1,0.6,0.6,1,1.2,1c0.5,0,1-0.3,1.2-0.9l2.2-6.6h4.1
							c0.7,0,1.3-0.6,1.3-1.3s-0.6-1.3-1.3-1.3h-5c-0.5,0-1,0.3-1.2,0.9l-1.1,3.2l-1.4-6.7c-0.1-0.5-0.5-0.9-1.1-1
							c-0.5-0.1-1,0.2-1.3,0.7l-2.1,4.3h-4.2c-0.7,0-1.3,0.6-1.3,1.3C-808.8-144.1-808.2-143.5-807.5-143.5z"/>
						<path d="M-789.9-134.7h-16.4c-0.7,0-1.3,0.6-1.3,1.3s0.6,1.3,1.3,1.3h16.4c0.7,0,1.3-0.6,1.3-1.3
							C-788.6-134.1-789.3-134.7-789.9-134.7z"/>
						<path d="M-788.7-129.6c0-0.7-0.6-1.3-1.3-1.3h-16.3c-0.7,0-1.3,0.6-1.3,1.3s0.6,1.3,1.3,1.3h16.4
							C-789.3-128.4-788.7-129.1-788.7-129.6z"/>
						<path d="M-798.7-127.1h-7.5c-0.7,0-1.3,0.6-1.3,1.3c0,0.7,0.6,1.3,1.3,1.3h7.5c0.7,0,1.3-0.6,1.3-1.3
							C-797.4-126.6-798-127.1-798.7-127.1z"/>
						<path d="M-798.7-123.4h-7.5c-0.7,0-1.3,0.6-1.3,1.3c0,0.7,0.6,1.3,1.3,1.3h7.5c0.7,0,1.3-0.6,1.3-1.3S-798-123.4-798.7-123.4z
							"/>
					</g>
				</g>
				<g id="Layer_1_00000103961905260202508760000017777268102901780380_">
				</g>
			</g>
		</g>
	</g>
	<g>
		<g>
			<rect x="119.8" y="1" class="st1" width="100.4" height="100.4"/>
			<g>
				<g id="_x31_047_x2C__Care_x2C__Health_x2C__Medical_x2C__Result_1_">
					<g>
						<path d="M185.6,27.4h-3v-0.1c0-2-1.6-3.7-3.7-3.7H175c-0.3-2.1-2.1-3.8-4.3-3.8s-4,1.6-4.3,3.8h-3.9c-2,0-3.7,1.6-3.7,3.7v0.1
							h-3c-2.5,0-4.5,2-4.5,4.5v45c0,2.5,2,4.5,4.5,4.5h29.9c2.5,0,4.5-2,4.5-4.5v-45C190.1,29.4,188.1,27.4,185.6,27.4z
							 M161.3,27.3c0-0.6,0.5-1.2,1.2-1.2h5.1c0.7,0,1.3-0.6,1.3-1.3v-0.6c0-1,0.8-1.9,1.9-1.9c1.1,0,1.9,0.8,1.9,1.9v0.6
							c0,0.7,0.6,1.3,1.3,1.3h5.1c0.6,0,1.2,0.5,1.2,1.2V30c0,0.6-0.5,1.2-1.2,1.2h-16.8c-0.6,0-1.2-0.5-1.2-1.2L161.3,27.3
							C161.2,27.3,161.3,27.3,161.3,27.3z M187.6,76.8c0,1.1-0.9,2-2,2h-29.8c-1.1,0-2-0.9-2-2V31.9c0-1.1,0.9-2,2-2h3V30
							c0,2,1.6,3.7,3.7,3.7H179c2,0,3.7-1.6,3.7-3.7v-0.1h3c1.1,0,2,0.9,2,2v44.9H187.6L187.6,76.8z"/>
						<path d="M183.9,45c-0.7,0-1.3,0.6-1.3,1.3v21.4h-5c-0.7,0-1.3,0.6-1.3,1.3v5h-17.5V37.5c0-0.7-0.6-1.3-1.3-1.3
							s-1.3,0.6-1.3,1.3v37.7c0,0.7,0.6,1.3,1.3,1.3c21.4,0,20.2,0,20.3,0c0.2,0,0.5-0.2,0.6-0.3c6.8-6.8,6.3-6.3,6.4-6.4
							c0.1-0.1,0.2-0.2,0.2-0.4c0.1-0.3,0,1,0.1-23C185.1,45.5,184.5,45,183.9,45z M180.8,70.1l-2,2v-2H180.8z"/>
						<path d="M144.9,58.8c-2.1,0-3.8,1.7-3.8,3.8s1.7,3.7,3.8,3.7s3.8-1.7,3.8-3.8C148.7,60.4,147,58.8,144.9,58.8z M144.9,63.8
							c-0.7,0-1.3-0.6-1.3-1.3s0.6-1.2,1.3-1.2s1.3,0.6,1.3,1.3S145.6,63.8,144.9,63.8z"/>
						<path d="M194.5,70.1c-1.7,0-3.1,1.4-3.1,3.1s1.4,3.1,3.1,3.1c1.7,0,3.1-1.4,3.1-3.1S196.2,70.1,194.5,70.1z M194.5,73.8
							c-0.3,0-0.6-0.3-0.6-0.6c0-0.3,0.3-0.6,0.6-0.6s0.6,0.3,0.6,0.6S194.8,73.8,194.5,73.8z"/>
						<path d="M195.7,45c2.4,0,4.4-2,4.4-4.4s-2-4.4-4.4-4.4s-4.4,2-4.4,4.4C191.4,43,193.3,45,195.7,45z M195.7,38.7
							c1,0,1.9,0.8,1.9,1.9c0,1.1-0.8,1.9-1.9,1.9c-1.1,0-1.9-0.8-1.9-1.9S194.7,38.7,195.7,38.7z"/>
						<path d="M143.7,39.9c0.7,0,1.3,0.6,1.3,1.3s-0.6,1.3-1.3,1.3s-1.3-0.6-1.3-1.3S143,39.9,143.7,39.9z"/>
						<path d="M147.4,28.6c0.7,0,1.3,0.6,1.3,1.3c0,0.7-0.6,1.3-1.3,1.3s-1.3-0.6-1.3-1.3C146.1,29.2,146.7,28.6,147.4,28.6z"/>
						<path d="M197.6,51.2c0.7,0,1.3,0.6,1.3,1.3s-0.6,1.3-1.3,1.3s-1.3-0.6-1.3-1.3S196.9,51.2,197.6,51.2z"/>
						<path d="M192.6,60c0.7,0,1.3,0.6,1.3,1.3s-0.6,1.3-1.3,1.3s-1.3-0.6-1.3-1.3C191.3,60.5,191.9,60,192.6,60z"/>
						<path d="M146.2,48.7c0.7,0,1.3,0.6,1.3,1.3s-0.6,1.3-1.3,1.3s-1.3-0.6-1.3-1.3S145.5,48.7,146.2,48.7z"/>
						<path d="M147.4,71.3c0.7,0,1.3,0.6,1.3,1.3s-0.6,1.3-1.3,1.3s-1.3-0.6-1.3-1.3S146.7,71.3,147.4,71.3z"/>
						<path d="M193.9,27.3c0.7,0,1.3,0.6,1.3,1.3c0,0.7-0.6,1.3-1.3,1.3s-1.3-0.6-1.3-1.3C192.6,27.9,193.2,27.3,193.9,27.3z"/>
						<path d="M183.9,41.2c0.7,0,1.3,0.6,1.3,1.3s-0.6,1.3-1.3,1.3s-1.3-0.6-1.3-1.3S183.1,41.2,183.9,41.2z"/>
						<path d="M173.8,65c0.7,0,1.3,0.6,1.3,1.3c0,0.7-0.6,1.3-1.3,1.3s-1.3-0.6-1.3-1.3S173.1,65,173.8,65z"/>
						<path d="M161.3,48.7h5c0.5,0,0.9-0.3,1.1-0.7l0.9-1.9l1.7,7.8c0.1,0.6,0.6,1,1.2,1c0.5,0,1-0.3,1.2-0.9l2.2-6.6h4.1
							c0.7,0,1.3-0.6,1.3-1.3s-0.6-1.3-1.3-1.3h-5c-0.5,0-1,0.3-1.2,0.9l-1.1,3.2l-1.4-6.7c-0.1-0.5-0.5-0.9-1.1-1
							c-0.5-0.1-1,0.2-1.3,0.7l-2.1,4.3h-4.2c-0.7,0-1.3,0.6-1.3,1.3C160,48.1,160.6,48.7,161.3,48.7z"/>
						<path d="M178.8,57.5h-16.4c-0.7,0-1.3,0.6-1.3,1.3s0.6,1.3,1.3,1.3h16.4c0.7,0,1.3-0.6,1.3-1.3
							C180.1,58.2,179.4,57.5,178.8,57.5z"/>
						<path d="M180,62.6c0-0.7-0.6-1.3-1.3-1.3h-16.3c-0.7,0-1.3,0.6-1.3,1.3s0.6,1.3,1.3,1.3h16.4C179.4,63.8,180,63.2,180,62.6z"
							/>
						<path d="M170,65.1h-7.5c-0.7,0-1.3,0.6-1.3,1.3c0,0.7,0.6,1.3,1.3,1.3h7.5c0.7,0,1.3-0.6,1.3-1.3
							C171.3,65.6,170.7,65.1,170,65.1z"/>
						<path d="M170,68.8h-7.5c-0.7,0-1.3,0.6-1.3,1.3c0,0.7,0.6,1.3,1.3,1.3h7.5c0.7,0,1.3-0.6,1.3-1.3S170.7,68.8,170,68.8z"/>
					</g>
				</g>
				<g id="Layer_1_4_">
				</g>
			</g>
		</g>
	</g>
</g>
<g id="_x33_">
	<g>
		<g>
			<rect x="-975.5" y="-191.2" class="st1" width="100.4" height="100.4"/>
			<g>
				<g id="_x31_046_x2C__Guard_x2C__Medical_x2C__Safe_x2C__Secure_x2C__Shield">
					<g>
						<path d="M-899.7-128.4c0.9-4.2,0-9.3-2.8-15.9c-0.4-0.9-0.6-1.8-0.7-2.7c-0.5-4.3,0.5-8.3,3.2-12.1c0.4-0.5,0.3-1.2-0.2-1.6
							c-2.9-2.8-5.6-5.3-8.7-8.2c-0.4-0.4-0.9-0.4-1.4-0.2c-2.7,1.3-5.1,2-7.2,2l0,0c-2.7,0-4.9-1-7.3-3.3c-0.5-0.5-1.2-0.5-1.7,0
							c-2.5,2.3-4.7,3.3-7.4,3.3c-2.1,0-4.5-0.7-7.2-2c-0.5-0.2-1-0.1-1.4,0.2c-2.8,2.6-5.7,5.4-8.6,8.2c-0.5,0.4-0.5,1.1-0.2,1.6
							c2.6,3.7,3.7,7.6,3.2,12.1c-0.1,0.9-0.4,1.9-0.7,2.7c-2.8,6.4-3.7,11.6-2.8,15.8c0.8,3.9,3.3,6.9,7.3,8.9c2,1,4.2,1.5,6.5,1.5
							c6.7,0,9,2.3,11.2,5c0.5,0.6,1.5,0.6,2,0c2.2-2.7,4.5-5,11.2-5c2.3,0,4.5-0.5,6.5-1.5C-903.1-121.4-900.6-124.4-899.7-128.4z
							 M-941.5-166.4c2.7,1.3,5.2,1.9,7.5,1.9c3,0,5.6-1,8.2-3.2c2.6,2.2,5.2,3.2,8.2,3.2l0,0c2.3,0,4.8-0.6,7.5-1.9
							c2.4,2.3,4.8,4.5,7.3,6.8c-2.2,3.5-3.3,7.1-3.2,11.1h-39.8c0-1.3-0.1-2.5-0.3-3.8h29.4c0.7,0,1.3-0.6,1.3-1.3
							s-0.6-1.3-1.3-1.3h-30c-0.5-1.6-1.3-3.2-2.3-4.7C-946.5-161.8-943.9-164.1-941.5-166.4z M-908.2-121.6
							c-1.6,0.8-3.5,1.3-5.3,1.3c-6.8,0-9.8,2.2-12.2,4.8c-2.3-2.6-5.4-4.8-12.2-4.8c-1.9,0-3.7-0.4-5.3-1.3
							c-4.5-2.3-9.7-7-3.4-21.6c0.4-0.9,0.7-1.9,0.9-2.8h40.2c0.2,1,0.5,1.9,0.8,2.8C-898.5-128.6-903.7-123.9-908.2-121.6z"/>
						<path d="M-936.5-124.6c-1.3,0-2.6-0.3-3.8-0.9c-3.2-1.6-6.8-4.9-2.3-15.3c0.3-0.6,0-1.4-0.6-1.6c-0.6-0.3-1.4,0-1.6,0.6
							c-2.1,4.7-2.7,8.6-2.1,11.8c0.6,2.9,2.5,5.2,5.5,6.8c1.5,0.8,3.2,1.2,4.9,1.2l0,0c0.7,0,1.2-0.6,1.3-1.2
							C-935.3-124.1-935.9-124.6-936.5-124.6z"/>
						<path d="M-912.7-154.9c0.7,0,1.3,0.6,1.3,1.3s-0.6,1.3-1.3,1.3s-1.3-0.6-1.3-1.3C-914-154.3-913.4-154.9-912.7-154.9z"/>
						<path d="M-908.9-154.9c0.7,0,1.3,0.6,1.3,1.3s-0.6,1.3-1.3,1.3s-1.3-0.6-1.3-1.3C-910.2-154.3-909.6-154.9-908.9-154.9z"/>
						<path d="M-901.4-167.4c0.7,0,1.3,0.6,1.3,1.3s-0.6,1.3-1.3,1.3s-1.3-0.6-1.3-1.3C-902.7-166.8-902.1-167.4-901.4-167.4z"/>
						<path d="M-898.9-151c0.7,0,1.3,0.6,1.3,1.3s-0.6,1.3-1.3,1.3s-1.3-0.6-1.3-1.3C-900.2-150.5-899.6-151-898.9-151z"/>
						<path d="M-951.6-166.1c0.7,0,1.3,0.6,1.3,1.3s-0.6,1.3-1.3,1.3s-1.3-0.6-1.3-1.3S-952.3-166.1-951.6-166.1z"/>
						<path d="M-951.6-152.4c0.7,0,1.3,0.6,1.3,1.3s-0.6,1.3-1.3,1.3s-1.3-0.6-1.3-1.3C-952.9-151.8-952.3-152.4-951.6-152.4z"/>
						<path d="M-942.8-115.9c0.7,0,1.3,0.6,1.3,1.3c0,0.7-0.6,1.3-1.3,1.3s-1.3-0.6-1.3-1.3S-943.6-115.9-942.8-115.9z"/>
						<path d="M-916.4-115.9c0.7,0,1.3,0.6,1.3,1.3c0,0.7-0.6,1.3-1.3,1.3s-1.3-0.6-1.3-1.3S-917.2-115.9-916.4-115.9z"/>
						<path d="M-920-142.5c-2.8,0-4.4,1.2-5.7,3c-1.3-1.9-3-3-5.7-3c-3.8,0-7,3.1-7,7c0,4.3,2.8,6.1,6,8.2c1.8,1.2,3.8,2.5,5.8,4.5
							c0.5,0.5,1.3,0.5,1.8,0c2-2,4-3.4,5.8-4.5c3.2-2.1,6-4,6-8.2C-913-139.4-916.1-142.5-920-142.5z M-920.3-129.4
							c-1.6,1.1-3.5,2.3-5.3,4c-1.9-1.7-3.7-2.9-5.3-4c-3.3-2.2-4.9-3.3-4.9-6.2c0-2.5,2-4.5,4.5-4.5c2.1,0,3.2,0.9,4.6,3.6
							c0.5,0.9,1.8,0.9,2.2,0c1.4-2.7,2.5-3.6,4.6-3.6c2.5,0,4.5,2,4.5,4.5C-915.5-132.8-917.1-131.6-920.3-129.4z"/>
						<path d="M-950.4-119.6c-2.1,0-3.8,1.7-3.8,3.8s1.7,3.8,3.8,3.8s3.8-1.7,3.8-3.8S-948.3-119.6-950.4-119.6z M-950.4-114.6
							c-0.7,0-1.3-0.6-1.3-1.3c0-0.7,0.6-1.3,1.3-1.3s1.3,0.6,1.3,1.3C-949.1-115.2-949.7-114.6-950.4-114.6z"/>
						<path d="M-902.1-119.6c-1.7,0-3.1,1.4-3.1,3.1s1.4,3.1,3.1,3.1c1.7,0,3.1-1.4,3.1-3.1C-898.9-118.2-900.4-119.6-902.1-119.6z
							 M-902.1-115.9c-0.3,0-0.6-0.3-0.6-0.6s0.3-0.6,0.6-0.6s0.6,0.3,0.6,0.6C-901.4-116.2-901.7-115.9-902.1-115.9z"/>
					</g>
				</g>
				<g id="Layer_1_00000131353498896064853290000008230883279182939291_">
				</g>
			</g>
		</g>
	</g>
</g>
<g id="_x32_">
	<g>
		<g>
			<rect x="-1102" y="-191.2" class="st1" width="100.4" height="100.4"/>
			<g>
				<g id="_x31_026_x2C__Digestion_x2C__Gastroenterology_x2C__Stomach">
					<g>
						<path d="M-1035.9-147.8c-1.4-0.9-2.8-1.3-4.3-1.3c-2.4,0-4.5,1.1-6.2,2.1c-0.9,0.5-1.9,1-2.4,1h-0.1c-0.1-0.1-0.4-0.3-0.7-0.9
							c-0.8-2-0.9-5.5-0.9-7.7c0,0,0,0.2,0-11.8c0-2.2-1.8-3.9-3.9-3.9c-2.2,0-3.9,1.7-3.9,3.9v11.8c0,2.9,0,6.2,0.6,9
							c0.8,3.8,1.8,4.6,4.5,6.2l0.1,0.1c1.7,1,2.7,2.4,3,4c0.4,2.1-0.3,4.8-2.1,7.4c-0.7,1-1.8,1.7-3.3,2.1c-0.1,0-0.3,0-0.4,0.1
							c-3.7,0.7-8.4-0.5-10.7-0.5c-2.4,0-4.4,1-5.8,2.8c-1,1.3-1.8,3-2.3,5.2c-0.3,0.9-1.4,4.8-0.7,7c0.2,0.5,0.6,0.9,1.2,0.9
							c0.4,0,5.3,0,5,0c0.7,0,1.3-0.6,1.2-1.4c-0.1-3.7,0.9-5.3,1-5.4s0.1-0.1,0.1-0.2c0.6-1.2,1.3-1.3,1.8-1.3c0.9,0,2,0.5,3.3,1.3
							c0.3,0.2,0.6,0.4,0.9,0.6c3.5,2.3,7.5,4.9,13.4,4.9c8.1,0,14-6,17-13.5C-1027.1-134.3-1028-142.7-1035.9-147.8z
							 M-1032.9-126.3c-1.4,3.5-5.6,11.8-14.5,11.9c-5.3,0.1-8.7-2.3-12.9-5c-1.8-1.2-3.3-1.7-4.7-1.7c-1.2,0-2.9,0.5-4,2.6
							c-0.3,0.5-1.4,2.2-1.5,5.7h-2.7c0-1.3,0.4-3.4,0.8-4.7c0,0,0,0,0-0.1c0.9-3.4,2.3-6.2,5.9-6.1c1.9,0,6.3,1.1,10.2,0.6
							c1.6,3.3,4.5,5.3,8.4,4.8c0.7-0.1,1.2-0.7,1.1-1.4c-0.1-0.7-0.7-1.2-1.4-1.1c-3.2,0.4-4.9-1.6-5.6-2.9
							c1.5-0.6,2.7-1.5,3.6-2.7c0.2-0.3,0.4-0.6,0.6-0.9c2.5-1.1,8.9-3.1,10.6-0.3c0.4,0.6,1.1,0.8,1.7,0.4s0.8-1.1,0.4-1.7
							c-0.7-1.2-2-2.4-4.6-2.6c0.5-2.3,2.4-3,2.6-3c0.7-0.2,1-0.9,0.8-1.5c-0.2-0.7-0.9-1-1.5-0.8c-1.4,0.4-4,2.1-4.5,5.5
							c-1.4,0.2-2.7,0.5-4,0.9c1.4-4.4,0.2-8.3-3.8-10.7c-2.4-1.4-2.8-1.7-3.5-4.7c-0.5-2.5-0.5-5.7-0.5-8.4v-12.1
							c0-0.7,0.5-1.2,1.1-1.4c0.9-0.2,1.8,0.5,1.8,1.4v11.8c-0.1,2.6,0,6.5,1.2,8.9c0.9,1.9,3.2,5.9,8.6,7.3
							c0.7,0.2,1.3-0.2,1.5-0.9s-0.2-1.4-0.9-1.5c-2.2-0.6-3.8-1.7-4.9-2.8c2.9-1,6.2-4.5,10.2-1.9
							C-1029.4-140.6-1030.5-132.4-1032.9-126.3z"/>
						<path d="M-1075.6-131c2.1,0,3.8-1.7,3.8-3.8s-1.7-3.8-3.8-3.8s-3.8,1.7-3.8,3.8S-1077.7-131-1075.6-131z M-1075.6-136
							c0.7,0,1.3,0.6,1.3,1.3s-0.6,1.3-1.3,1.3c-0.7,0-1.3-0.7-1.3-1.3S-1076.3-136-1075.6-136z"/>
						<path d="M-1070-158.6c1.7,0,3.1-1.4,3.1-3.1c0-1.7-1.4-3.1-3.1-3.1s-3.1,1.4-3.1,3.1S-1071.7-158.6-1070-158.6z M-1070-162.3
							c0.3,0,0.6,0.3,0.6,0.6s-0.3,0.6-0.6,0.6c-0.3,0-0.6-0.3-0.6-0.6S-1070.4-162.3-1070-162.3z"/>
						<path d="M-1029.8-157.3c-2.4,0-4.4,2-4.4,4.4s2,4.4,4.4,4.4s4.4-2,4.4-4.4C-1025.4-155.4-1027.4-157.3-1029.8-157.3z
							 M-1029.8-151c-1,0-1.9-0.8-1.9-1.9c0-1.1,0.8-1.9,1.9-1.9s1.9,0.8,1.9,1.9C-1027.9-151.9-1028.8-151-1029.8-151z"/>
						<path d="M-1025.4-144.8c0.7,0,1.3,0.6,1.3,1.3s-0.6,1.3-1.3,1.3c-0.7,0-1.3-0.6-1.3-1.3
							C-1026.7-144.2-1026.1-144.8-1025.4-144.8z"/>
						<path d="M-1025.4-120.9c0.7,0,1.3,0.6,1.3,1.3s-0.6,1.3-1.3,1.3c-0.7,0-1.3-0.6-1.3-1.3S-1026.1-120.9-1025.4-120.9z"/>
						<path d="M-1032.9-114.7c0.7,0,1.3,0.6,1.3,1.3c0,0.7-0.6,1.3-1.3,1.3c-0.7,0-1.3-0.6-1.3-1.3
							C-1034.2-114.1-1033.6-114.7-1032.9-114.7z"/>
						<path d="M-1059.3-132.3c0.7,0,1.3,0.6,1.3,1.3s-0.6,1.3-1.3,1.3c-0.7,0-1.3-0.6-1.3-1.3S-1060-132.3-1059.3-132.3z"/>
						<path d="M-1069.4-144.8c0.7,0,1.3,0.6,1.3,1.3s-0.6,1.3-1.3,1.3c-0.7,0-1.3-0.6-1.3-1.3
							C-1070.7-144.2-1070.1-144.8-1069.4-144.8z"/>
						<path d="M-1063-152.4c0.7,0,1.3,0.6,1.3,1.3s-0.6,1.3-1.3,1.3c-0.7,0-1.3-0.6-1.3-1.3C-1064.3-151.8-1063.8-152.4-1063-152.4z
							"/>
						<path d="M-1076.9-158.6c0.7,0,1.3,0.6,1.3,1.3s-0.6,1.3-1.3,1.3c-0.7,0-1.3-0.6-1.3-1.3
							C-1078.2-158-1077.6-158.6-1076.9-158.6z"/>
						<path d="M-1078.1-125.9c0.7,0,1.3,0.6,1.3,1.3c0,0.7-0.6,1.3-1.3,1.3c-0.7,0-1.3-0.6-1.3-1.3
							C-1079.4-125.4-1078.8-125.9-1078.1-125.9z"/>
						<path d="M-1044.3-120.9c0.7,0,1.3,0.6,1.3,1.3s-0.6,1.3-1.3,1.3s-1.3-0.6-1.3-1.3S-1045-120.9-1044.3-120.9z"/>
						<path d="M-1041.8-155.2c0.5,0.5,1.3,0.5,1.8,0l8.4-8.4c1.2-1.2,1.2-3.2,0-4.4s-3.2-1.2-4.4,0l-4.9,4.9l-0.4-0.4
							c-1.2-1.2-3.2-1.2-4.4,0c-1.2,1.2-1.2,3.2,0,4.4L-1041.8-155.2z M-1043.1-161.8l1.3,1.3c0.5,0.5,1.3,0.5,1.8,0l5.7-5.7
							c0.2-0.2,0.6-0.2,0.9,0c0.2,0.2,0.2,0.6,0,0.9l-7.5,7.5l-3.1-3.1c-0.2-0.2-0.2-0.3-0.2-0.4
							C-1044.2-162-1043.5-162.2-1043.1-161.8z"/>
					</g>
				</g>
				<g id="Layer_1_00000027592580567408889380000015367468782629089707_">
				</g>
			</g>
		</g>
	</g>
</g>
<g>
	<g>
		<rect x="348.6" y="-43.7" class="st1" width="100" height="100"/>
		<g>
			<g id="_x32_26_x2C__Awareness_x2C__Cancer_x2C__Community_x2C__Day_x2C__Health">
				<g>
					<g>
						<path class="st8" d="M398.5-7c2.5,0,4.6-2.1,4.6-4.6s-2.1-4.6-4.6-4.6s-4.6,2.1-4.6,4.6S396-7,398.5-7z"/>
						<path class="st8" d="M408.3,2.6h1.7V1c0-0.3,0.3-0.6,0.6-0.6c0.3,0,0.6,0.3,0.6,0.6v1.6h3.2V1c0-0.3,0.3-0.6,0.6-0.6
							c0.3,0,0.6,0.3,0.6,0.6v1.6h1.7v-2c0-2.3-1.9-4.1-4.1-4.1c-0.5,0-0.3,0-0.8,0c-2.3,0-4.1,1.9-4.1,4.1L408.3,2.6L408.3,2.6z"/>
						<path class="st8" d="M377.4-16.2c1.4,0,2.5-1.1,2.5-2.5s-1.1-2.5-2.5-2.5s-2.5,1.1-2.5,2.5C374.9-17.3,376-16.2,377.4-16.2z"
							/>
						<path class="st8" d="M394,2.8c0-0.3,0.3-0.6,0.6-0.6c0.3,0,0.6,0.3,0.6,0.6v2.3h6.6V2.8c0-0.3,0.3-0.6,0.6-0.6
							c0.3,0,0.6,0.3,0.6,0.6v2.3h4c0-1.7,0-3.2,0-4.9c0-3.2-2.6-5.9-5.9-5.9h-5.3c-3.2,0-5.9,2.6-5.9,5.9c0,1.7,0,3.2,0,4.9h4
							L394,2.8L394,2.8z"/>
						<path class="st8" d="M422.4-13.7c1,0,1.9-0.8,1.9-1.9c0-1-0.8-1.9-1.9-1.9c-1,0-1.9,0.8-1.9,1.9S421.3-13.7,422.4-13.7z"/>
						<path class="st8" d="M379.7,2.6h1.7V1c0-0.3,0.3-0.6,0.6-0.6c0.3,0,0.6,0.3,0.6,0.6v1.6h3.2V1c0-0.3,0.3-0.6,0.6-0.6
							c0.3,0,0.6,0.3,0.6,0.6v1.6h1.7v-2c0-2.3-1.9-4.1-4.1-4.1c-0.5,0-0.3,0-0.8,0c-2.3,0-4.1,1.9-4.1,4.1L379.7,2.6L379.7,2.6z"/>
						<path class="st8" d="M388,26.1v6.5h6.3v-7.3c0-5-4.1-9-9-9h-0.8c-3.1,0-6-1.3-8.1-3.6l-2.6-2.9c-1.1-1.3-3.3-0.5-3.3,1.2
							c0,0.5,0.2,0.9,0.5,1.2l6.3,7.1c1.8,2,4.4,3.2,7.2,3.2C386.4,22.6,388,24.1,388,26.1z"/>
						<path class="st8" d="M412.8-4.8L412.8-4.8c1.3,0,2.3-1,2.3-2.3s-1-2.3-2.3-2.3s-2.3,1-2.3,2.3S411.6-4.8,412.8-4.8z"/>
						<path class="st8" d="M384.2-4.8L384.2-4.8c1.3,0,2.3-1,2.3-2.3s-1-2.3-2.3-2.3s-2.3,1-2.3,2.3C381.9-5.8,382.9-4.8,384.2-4.8z
							"/>
						<path class="st8" d="M423.5,9.7l-2.6,2.9c-2.1,2.3-5,3.6-8.1,3.6h-0.7c-4.1,0-9,4-9,9v7.2h6.3v-6.5c0-2,1.6-3.5,3.5-3.5
							c2.7,0,5.3-1.2,7.2-3.2l6.3-7.1c0.3-0.3,0.5-0.8,0.5-1.2C426.7,9.3,424.6,8.5,423.5,9.7z"/>
						<path class="st8" d="M423.9,23.2c0.5,0,0.9,0.4,0.9,0.9s-0.4,0.9-0.9,0.9s-0.9-0.4-0.9-0.9S423.4,23.2,423.9,23.2z"/>
						<path class="st8" d="M375.8,23.2c0.5,0,0.9,0.4,0.9,0.9s-0.4,0.9-0.9,0.9s-0.9-0.4-0.9-0.9S375.3,23.2,375.8,23.2z"/>
						<path class="st8" d="M415.5,8.8c0-0.3-0.3-0.6-0.6-0.6h-32.5c-0.3,0-0.6,0.3-0.6,0.6s0.3,0.6,0.6,0.6h32.5
							C415.2,9.4,415.5,9.1,415.5,8.8z"/>
						<path class="st8" d="M407.4,11.9c0-0.3-0.3-0.6-0.6-0.6h-16.3c-0.3,0-0.6,0.3-0.6,0.6s0.3,0.6,0.6,0.6h16.3
							C407.1,12.6,407.4,12.3,407.4,11.9z"/>
						<path class="st8" d="M407.7-22.4c0.5,0,0.9,0.4,0.9,0.9s-0.4,0.9-0.9,0.9s-0.9-0.4-0.9-0.9C406.8-22,407.2-22.4,407.7-22.4z"
							/>
						<path class="st8" d="M422.7-8.7c0.5,0,0.9,0.4,0.9,0.9s-0.4,0.9-0.9,0.9s-0.9-0.4-0.9-0.9S422.2-8.7,422.7-8.7z"/>
						<path class="st8" d="M420.2,5.7c0.5,0,0.9,0.4,0.9,0.9s-0.4,0.9-0.9,0.9s-0.9-0.4-0.9-0.9C419.3,6.1,419.7,5.7,420.2,5.7z"/>
						<path class="st8" d="M398.3,16.3c0.5,0,0.9,0.4,0.9,0.9s-0.4,0.9-0.9,0.9s-0.9-0.4-0.9-0.9C397.4,16.7,397.8,16.3,398.3,16.3z
							"/>
						<path class="st8" d="M388.9-21.8c0.5,0,0.9,0.4,0.9,0.9s-0.4,0.9-0.9,0.9s-0.9-0.4-0.9-0.9S388.4-21.8,388.9-21.8z"/>
						<path class="st8" d="M373.9-9.3c0.5,0,0.9,0.4,0.9,0.9s-0.4,0.9-0.9,0.9S373-7.9,373-8.4S373.4-9.3,373.9-9.3z"/>
						<path class="st8" d="M375.2,2.6c0.5,0,0.9,0.4,0.9,0.9s-0.4,0.9-0.9,0.9s-0.9-0.4-0.9-0.9S374.7,2.6,375.2,2.6z"/>
						<path class="st8" d="M414.9,33.8h-32.5c-0.3,0-0.6,0.3-0.6,0.6s0.3,0.6,0.6,0.6h32.5c0.3,0,0.6-0.3,0.6-0.6
							S415.2,33.8,414.9,33.8z"/>
					</g>
					<g>
						<path class="st8" d="M398.5-7c2.5,0,4.6-2.1,4.6-4.6s-2.1-4.6-4.6-4.6s-4.6,2.1-4.6,4.6S396-7,398.5-7z"/>
						<path class="st8" d="M408.3,2.6h1.7V1c0-0.3,0.3-0.6,0.6-0.6c0.3,0,0.6,0.3,0.6,0.6v1.6h3.2V1c0-0.3,0.3-0.6,0.6-0.6
							c0.3,0,0.6,0.3,0.6,0.6v1.6h1.7v-2c0-2.3-1.9-4.1-4.1-4.1c-0.5,0-0.3,0-0.8,0c-2.3,0-4.1,1.9-4.1,4.1L408.3,2.6L408.3,2.6z"/>
						<path class="st8" d="M377.4-16.2c1.4,0,2.5-1.1,2.5-2.5s-1.1-2.5-2.5-2.5s-2.5,1.1-2.5,2.5C374.9-17.3,376-16.2,377.4-16.2z"
							/>
						<path class="st8" d="M394,2.8c0-0.3,0.3-0.6,0.6-0.6c0.3,0,0.6,0.3,0.6,0.6v2.3h6.6V2.8c0-0.3,0.3-0.6,0.6-0.6
							c0.3,0,0.6,0.3,0.6,0.6v2.3h4c0-1.7,0-3.2,0-4.9c0-3.2-2.6-5.9-5.9-5.9h-5.3c-3.2,0-5.9,2.6-5.9,5.9c0,1.7,0,3.2,0,4.9h4
							L394,2.8L394,2.8z"/>
						<path class="st8" d="M422.4-13.7c1,0,1.9-0.8,1.9-1.9c0-1-0.8-1.9-1.9-1.9c-1,0-1.9,0.8-1.9,1.9S421.3-13.7,422.4-13.7z"/>
						<path class="st8" d="M379.7,2.6h1.7V1c0-0.3,0.3-0.6,0.6-0.6c0.3,0,0.6,0.3,0.6,0.6v1.6h3.2V1c0-0.3,0.3-0.6,0.6-0.6
							c0.3,0,0.6,0.3,0.6,0.6v1.6h1.7v-2c0-2.3-1.9-4.1-4.1-4.1c-0.5,0-0.3,0-0.8,0c-2.3,0-4.1,1.9-4.1,4.1L379.7,2.6L379.7,2.6z"/>
						<path class="st8" d="M388,26.1v6.5h6.3v-7.3c0-5-4.1-9-9-9h-0.8c-3.1,0-6-1.3-8.1-3.6l-2.6-2.9c-1.1-1.3-3.3-0.5-3.3,1.2
							c0,0.5,0.2,0.9,0.5,1.2l6.3,7.1c1.8,2,4.4,3.2,7.2,3.2C386.4,22.6,388,24.1,388,26.1z"/>
						<path class="st8" d="M412.8-4.8L412.8-4.8c1.3,0,2.3-1,2.3-2.3s-1-2.3-2.3-2.3s-2.3,1-2.3,2.3S411.6-4.8,412.8-4.8z"/>
						<path class="st8" d="M384.2-4.8L384.2-4.8c1.3,0,2.3-1,2.3-2.3s-1-2.3-2.3-2.3s-2.3,1-2.3,2.3C381.9-5.8,382.9-4.8,384.2-4.8z
							"/>
						<path class="st8" d="M423.5,9.7l-2.6,2.9c-2.1,2.3-5,3.6-8.1,3.6h-0.7c-4.1,0-9,4-9,9v7.2h6.3v-6.5c0-2,1.6-3.5,3.5-3.5
							c2.7,0,5.3-1.2,7.2-3.2l6.3-7.1c0.3-0.3,0.5-0.8,0.5-1.2C426.7,9.3,424.6,8.5,423.5,9.7z"/>
						<path class="st8" d="M423.9,23.2c0.5,0,0.9,0.4,0.9,0.9s-0.4,0.9-0.9,0.9s-0.9-0.4-0.9-0.9S423.4,23.2,423.9,23.2z"/>
						<path class="st8" d="M375.8,23.2c0.5,0,0.9,0.4,0.9,0.9s-0.4,0.9-0.9,0.9s-0.9-0.4-0.9-0.9S375.3,23.2,375.8,23.2z"/>
						<path class="st8" d="M415.5,8.8c0-0.3-0.3-0.6-0.6-0.6h-32.5c-0.3,0-0.6,0.3-0.6,0.6s0.3,0.6,0.6,0.6h32.5
							C415.2,9.4,415.5,9.1,415.5,8.8z"/>
						<path class="st8" d="M407.4,11.9c0-0.3-0.3-0.6-0.6-0.6h-16.3c-0.3,0-0.6,0.3-0.6,0.6s0.3,0.6,0.6,0.6h16.3
							C407.1,12.6,407.4,12.3,407.4,11.9z"/>
						<path class="st8" d="M407.7-22.4c0.5,0,0.9,0.4,0.9,0.9s-0.4,0.9-0.9,0.9s-0.9-0.4-0.9-0.9C406.8-22,407.2-22.4,407.7-22.4z"
							/>
						<path class="st8" d="M422.7-8.7c0.5,0,0.9,0.4,0.9,0.9s-0.4,0.9-0.9,0.9s-0.9-0.4-0.9-0.9S422.2-8.7,422.7-8.7z"/>
						<path class="st8" d="M420.2,5.7c0.5,0,0.9,0.4,0.9,0.9s-0.4,0.9-0.9,0.9s-0.9-0.4-0.9-0.9C419.3,6.1,419.7,5.7,420.2,5.7z"/>
						<path class="st8" d="M398.3,16.3c0.5,0,0.9,0.4,0.9,0.9s-0.4,0.9-0.9,0.9s-0.9-0.4-0.9-0.9C397.4,16.7,397.8,16.3,398.3,16.3z
							"/>
						<path class="st8" d="M388.9-21.8c0.5,0,0.9,0.4,0.9,0.9s-0.4,0.9-0.9,0.9s-0.9-0.4-0.9-0.9S388.4-21.8,388.9-21.8z"/>
						<path class="st8" d="M373.9-9.3c0.5,0,0.9,0.4,0.9,0.9s-0.4,0.9-0.9,0.9S373-7.9,373-8.4S373.4-9.3,373.9-9.3z"/>
						<path class="st8" d="M375.2,2.6c0.5,0,0.9,0.4,0.9,0.9s-0.4,0.9-0.9,0.9s-0.9-0.4-0.9-0.9S374.7,2.6,375.2,2.6z"/>
						<path class="st8" d="M414.9,33.8h-32.5c-0.3,0-0.6,0.3-0.6,0.6s0.3,0.6,0.6,0.6h32.5c0.3,0,0.6-0.3,0.6-0.6
							S415.2,33.8,414.9,33.8z"/>
					</g>
				</g>
			</g>
			<g id="Layer_1_15_">
			</g>
		</g>
	</g>
</g>
<g>
	<g>
		<g>
			<g id="_x31_030_x2C__Care_x2C__Health_x2C__Kidneys_x2C__Medical">
				<g>
					<path d="M77,40.91c-1.72-3.43-1.62-3.33-1.72-3.43c-1.72-2.62-4.54-4.14-7.57-4.14c-4.14,0-7.97,2.93-8.88,7.17
						c-0.5,2.32-0.1,4.74,1.21,6.76c1.41,2.22,1.41,5.15,0,7.37c-2.73,4.14-1.51,9.79,2.62,12.52c4.14,2.73,9.79,1.51,12.52-2.62
						c0.1-0.1,0,0,1.41-2.73C80.12,55.34,80.23,47.47,77,40.91z M74.47,60.69l-1.31,2.52c-2.02,3.03-5.96,3.84-8.98,1.92
						c-3.03-1.92-3.84-5.96-1.92-8.98c2.02-3.03,2.02-7.07,0-10.09c-1.92-3.03-1.11-7.07,1.92-8.98c2.93-1.92,6.96-1.11,8.98,1.82
						l1.51,3.23C77.6,47.87,77.5,54.84,74.47,60.69z"/>
					<path d="M72.35,44.44c-0.61,0.3-0.91,1.01-0.61,1.72c1.51,3.23,1.51,6.96-0.1,10.19c-0.3,0.61-0.1,1.41,0.5,1.72
						c0.61,0.3,1.41,0.1,1.72-0.5c2.02-3.84,2.02-8.48,0.2-12.42C73.77,44.34,72.96,44.14,72.35,44.44z"/>
					<path d="M40.86,54.73c-1.41-2.22-1.41-5.15,0-7.37c2.73-4.14,1.51-9.79-2.62-12.52s-9.79-1.51-12.52,2.62
						c-0.1,0.1,0,0-1.72,3.43c-3.23,6.56-3.13,14.43,0.3,20.89c1.41,2.73,1.31,2.62,1.41,2.73c2.72,4.24,8.38,5.35,12.52,2.62
						C42.38,64.53,43.48,58.87,40.86,54.73z M36.82,65.03c-3.03,1.92-6.96,1.11-8.98-1.92l-1.31-2.52
						c-3.03-5.85-3.13-12.82-0.2-18.67l1.51-3.23c2.02-3.03,5.96-3.84,8.98-1.82c2.93,2.02,3.83,6.06,1.92,9.08
						c-2.02,3.03-2.02,7.07,0,10.09C40.66,59.07,39.75,63.11,36.82,65.03z"/>
					<path d="M29.15,46.05c0.3-0.61,0-1.41-0.61-1.72c-0.61-0.3-1.41,0-1.72,0.61c-1.92,3.94-1.82,8.58,0.2,12.42
						c0.3,0.61,1.11,0.91,1.72,0.5c0.61-0.3,0.91-1.11,0.5-1.72C27.64,53.12,27.64,49.28,29.15,46.05z"/>
					<path d="M50.45,20.72c-1.72,0-3.13,1.41-3.13,3.13v54.3c0,1.72,1.41,3.13,3.13,3.13s3.13-1.41,3.13-3.13v-54.3
						C53.68,22.13,52.17,20.72,50.45,20.72z M51.16,78.15c0,0.3-0.3,0.61-0.61,0.61c-0.3,0-0.71-0.3-0.71-0.61v-54.3
						c0-0.3,0.3-0.61,0.61-0.61c0.3,0,0.61,0.3,0.61,0.61v54.3H51.16z"/>
					<path d="M56.2,40.91c-0.71,0-1.31,0.61-1.31,1.31v31.59c0,0.71,0.61,1.31,1.31,1.31c0.71,0,1.31-0.61,1.31-1.31V42.22
						C57.41,41.51,56.81,40.91,56.2,40.91z"/>
					<path d="M44.8,27.08c-0.71,0-1.31,0.61-1.31,1.31v32.7c0,0.71,0.61,1.31,1.31,1.31c0.71,0,1.31-0.61,1.31-1.31v-32.8
						C46.11,27.58,45.5,27.08,44.8,27.08z"/>
					<path d="M56.2,37.07c0.72,0,1.31,0.59,1.31,1.31c0,0.72-0.59,1.31-1.31,1.31c-0.73,0-1.31-0.59-1.31-1.31
						C54.89,37.66,55.48,37.07,56.2,37.07z"/>
					<path d="M61.25,26.98c0.72,0,1.31,0.59,1.31,1.31s-0.59,1.31-1.31,1.31c-0.72,0-1.31-0.59-1.31-1.31S60.52,26.98,61.25,26.98z"
						/>
					<path d="M41.06,24.45c0.72,0,1.31,0.59,1.31,1.31s-0.59,1.31-1.31,1.31c-0.72,0-1.31-0.59-1.31-1.31S40.34,24.45,41.06,24.45z"
						/>
					<path d="M23.4,30.81c0.72,0,1.31,0.59,1.31,1.31c0,0.72-0.59,1.31-1.31,1.31s-1.31-0.59-1.31-1.31
						C22.09,31.4,22.67,30.81,23.4,30.81z"/>
					<path d="M73.87,69.87c0.72,0,1.31,0.59,1.31,1.31s-0.59,1.31-1.31,1.31s-1.31-0.59-1.31-1.31S73.14,69.87,73.87,69.87z"/>
					<path d="M64.98,73.71c0.72,0,1.31,0.59,1.31,1.31s-0.59,1.31-1.31,1.31c-0.73,0-1.31-0.59-1.31-1.31S64.26,73.71,64.98,73.71z"
						/>
					<path d="M42.27,72.4c0.72,0,1.31,0.59,1.31,1.31c0,0.72-0.59,1.31-1.31,1.31c-0.72,0-1.31-0.59-1.31-1.31
						C40.96,72.99,41.55,72.4,42.27,72.4z"/>
					<path d="M24.61,68.66c0.72,0,1.31,0.59,1.31,1.31c0,0.72-0.59,1.31-1.31,1.31c-0.72,0-1.31-0.59-1.31-1.31
						C23.3,69.25,23.89,68.66,24.61,68.66z"/>
					<circle cx="44.8" cy="64.93" r="1.31"/>
					<path d="M32.18,71.19c-2.12,0-3.84,1.72-3.84,3.84s1.72,3.84,3.84,3.84c2.12,0,3.84-1.72,3.84-3.84S34.3,71.19,32.18,71.19z
						 M32.18,76.23c-0.71,0-1.31-0.61-1.31-1.31s0.61-1.31,1.31-1.31c0.71,0,1.31,0.61,1.31,1.31S32.89,76.23,32.18,76.23z"/>
					<path d="M70.64,29.6c1.72,0,3.13-1.41,3.13-3.13c0-1.72-1.41-3.13-3.13-3.13c-1.72,0-3.13,1.41-3.13,3.13
						C67.51,28.19,68.92,29.6,70.64,29.6z M70.64,25.77c0.3,0,0.61,0.3,0.61,0.61s-0.3,0.61-0.61,0.61c-0.3,0-0.61-0.2-0.61-0.61
						C70.03,25.97,70.33,25.77,70.64,25.77z"/>
					<path d="M31.57,32.13c1.72,0,3.13-1.41,3.13-3.13s-1.41-3.23-3.13-3.23c-1.72,0-3.13,1.41-3.13,3.13
						C28.45,30.61,29.86,32.13,31.57,32.13z M31.57,28.29c0.3,0,0.61,0.3,0.61,0.61c0,0.3-0.3,0.61-0.61,0.61
						c-0.3,0-0.61-0.3-0.61-0.61C30.97,28.59,31.17,28.29,31.57,28.29z"/>
				</g>
			</g>
			<g id="Layer_1_00000012465302158144120010000006385232354331756960_">
			</g>
		</g>
	</g>
</g>
</svg>
