<?xml version="1.0" encoding="utf-8"?>
<!-- Generator: Adobe Illustrator 25.0.0, SVG Export Plug-In . SVG Version: 6.00 Build 0)  -->
<svg version="1.1" id="Capa_1" xmlns="http://www.w3.org/2000/svg" xmlns:xlink="http://www.w3.org/1999/xlink" x="0px" y="0px"
	 viewBox="0 0 100.93 99.52" style="enable-background:new 0 0 100.93 99.52;" xml:space="preserve">
<style type="text/css">
	.st0{fill:#020203;}
</style>
<g>
	<g>
		<g>
			<g id="_x31_004_x2C__Call_x2C__Hospital_Call_x2C__Medical_x2C__Message">
				<g>
					<path class="st0" d="M63.58,56.58c-1.01-1-2.63-1-3.54,0c-4.44,4.4-4.24,4.1-4.34,4.3c-1.72,1.5-5.96,0.5-10.81-4.3
						c-3.03-3-4.24-5.4-4.65-6.9c-0.3-1-0.71-2.8,0.4-3.9c0.1-0.1,0.1-0.1,0.2-0.2l4.04-4c1.01-1,1.01-2.6,0-3.5l-10.1-10
						c-1.01-1-2.63-1-3.54,0c-0.1,0.1-4.44,4.4-4.24,4.2c-3.64,3.6-4.85,8.2-3.64,13.4c1.31,5.8,5.76,12.3,12.93,19.5
						c7.17,7.1,13.84,11.3,19.9,12.6c4.95,1,9.8,0.1,13.23-3.4c0.1-0.1,0.1-0.1,0.2-0.2l4.04-4c1.01-1,1.01-2.6,0-3.5L63.58,56.58z
						 M32.97,29.78l10.1,10l-3.33,3.3l-10.1-10L32.97,29.78z M56.81,75.18c-5.55-1.2-11.92-5.2-18.68-11.9
						c-7.88-7.8-17.27-19.9-10.2-28.4l10.2,10.1c-0.81,1.4-1.01,3.3-0.3,5.4c0.81,2.5,2.62,5.3,5.35,7.9
						c3.74,3.7,7.57,5.7,10.71,5.7c1.01,0,2.02-0.2,2.83-0.7l10.2,10.1C64.18,75.38,60.75,76.08,56.81,75.18z M68.63,71.58l-10.1-10
						l3.33-3.3l10.1,10L68.63,71.58z"/>
					<path class="st0" d="M57.01,24.78c0.72,0,1.31,0.58,1.31,1.3c0,0.72-0.59,1.3-1.31,1.3c-0.73,0-1.31-0.58-1.31-1.3
						C55.7,25.36,56.29,24.78,57.01,24.78z"/>
					<path class="st0" d="M31.76,21.08c0.73,0,1.31,0.58,1.31,1.3s-0.59,1.3-1.31,1.3c-0.72,0-1.31-0.58-1.31-1.3
						S31.04,21.08,31.76,21.08z"/>
					<path class="st0" d="M26.71,58.58c0.72,0,1.31,0.58,1.31,1.3c0,0.72-0.59,1.3-1.31,1.3c-0.73,0-1.31-0.58-1.31-1.3
						C25.4,59.16,25.99,58.58,26.71,58.58z"/>
					<path class="st0" d="M38.13,72.28c0.72,0,1.31,0.58,1.31,1.3c0,0.72-0.59,1.3-1.31,1.3c-0.73,0-1.31-0.58-1.31-1.3
						C36.81,72.86,37.4,72.28,38.13,72.28z"/>
					<path class="st0" d="M78.52,67.28c0.72,0,1.31,0.58,1.31,1.3c0,0.72-0.59,1.3-1.31,1.3c-0.73,0-1.31-0.58-1.31-1.3
						C77.21,67.86,77.8,67.28,78.52,67.28z"/>
					<path class="st0" d="M76,21.08c0.73,0,1.31,0.58,1.31,1.3s-0.59,1.3-1.31,1.3c-0.72,0-1.31-0.58-1.31-1.3S75.27,21.08,76,21.08
						z"/>
					<path class="st0" d="M68.42,34.78c0.72,0,1.31,0.58,1.31,1.3s-0.59,1.3-1.31,1.3c-0.73,0-1.31-0.58-1.31-1.3
						S67.7,34.78,68.42,34.78z"/>
					<ellipse class="st0" cx="45.7" cy="46.08" rx="1.31" ry="1.3"/>
					<path class="st0" d="M50.75,53.58c0.72,0,1.31,0.58,1.31,1.3c0,0.72-0.59,1.3-1.31,1.3c-0.73,0-1.31-0.58-1.31-1.3
						C49.44,54.16,50.02,53.58,50.75,53.58z"/>
					<path class="st0" d="M62.06,19.78c0.72,0,1.31,0.58,1.31,1.3c0,0.72-0.59,1.3-1.31,1.3c-0.73,0-1.31-0.58-1.31-1.3
						C60.75,20.36,61.34,19.78,62.06,19.78z"/>
					<path class="st0" d="M74.08,54.88c-1.72,0-3.13,1.4-3.13,3.1c0,1.7,1.41,3.1,3.13,3.1c1.72,0,3.13-1.4,3.13-3.1
						C77.21,56.28,75.8,54.88,74.08,54.88z M74.08,58.58c-0.3,0-0.61-0.3-0.61-0.6c0-0.3,0.3-0.6,0.61-0.6c0.3,0,0.61,0.3,0.61,0.6
						C74.69,58.28,74.38,58.58,74.08,58.58z"/>
					<path class="st0" d="M43.78,27.38c1.72,0,3.13-1.4,3.13-3.1c0-1.7-1.41-3.1-3.13-3.1c-1.72,0-3.13,1.4-3.13,3.1
						C40.65,25.98,42.06,27.38,43.78,27.38z M43.78,23.58c0.3,0,0.61,0.3,0.61,0.6c0,0.3-0.3,0.6-0.61,0.6c-0.3,0-0.61-0.3-0.61-0.6
						C43.18,23.88,43.38,23.58,43.78,23.58z"/>
					<path class="st0" d="M34.29,72.38h-7.57c-0.71,0-1.31,0.6-1.31,1.3c0,0.7,0.61,1.3,1.31,1.3h7.57c0.71,0,1.31-0.6,1.31-1.3
						C35.6,72.88,35,72.38,34.29,72.38z"/>
					<path class="st0" d="M31.76,69.88c0-0.7-0.61-1.3-1.31-1.3h-6.36c-0.71,0-1.31,0.6-1.31,1.3c0,0.7,0.61,1.3,1.31,1.3h6.36
						C31.16,71.08,31.76,70.48,31.76,69.88z"/>
					<path class="st0" d="M79.74,29.88H51.96c-0.71,0-1.31,0.6-1.31,1.3v17.4c0,0.7,0.61,1.3,1.31,1.3H56l-1.41,3.3
						c-0.2,0.4-0.1,1,0.4,1.4c0.4,0.4,1.01,0.4,1.52,0.1l7.27-4.8h16.06c0.71,0,1.31-0.6,1.31-1.3v-17.5
						C81.05,30.38,80.44,29.88,79.74,29.88z M78.52,47.38H63.37c-0.2,0-0.5,0.1-0.71,0.2l-4.04,2.7l0.51-1.1
						c0.4-0.8-0.3-1.7-1.11-1.7h-4.65v-15h25.25v14.9H78.52z"/>
					<path class="st0" d="M57.01,37.38h7.57c0.71,0,1.31-0.6,1.31-1.3s-0.61-1.3-1.31-1.3h-7.57c-0.71,0-1.31,0.6-1.31,1.3
						C55.8,36.78,56.3,37.38,57.01,37.38z"/>
					<path class="st0" d="M57.01,41.08h17.67c0.71,0,1.31-0.6,1.31-1.3s-0.61-1.3-1.31-1.3H57.01c-0.71,0-1.31,0.6-1.31,1.3
						C55.8,40.48,56.3,41.08,57.01,41.08z"/>
					<path class="st0" d="M57.01,44.88h17.67c0.71,0,1.31-0.6,1.31-1.3s-0.61-1.3-1.31-1.3H57.01c-0.71,0-1.31,0.6-1.31,1.3
						C55.8,44.28,56.3,44.88,57.01,44.88z"/>
				</g>
			</g>
		</g>
	</g>
</g>
</svg>
